<svg width="150" height="35" viewBox="0 0 150 35" fill="none" xmlns="http://www.w3.org/2000/svg">
<g clip-path="url(#clip0_15_5)">
<mask id="mask0_15_5" style="mask-type:luminance" maskUnits="userSpaceOnUse" x="0" y="0" width="150" height="35">
<path d="M150 0H0V34.5311H150V0Z" fill="white"/>
</mask>
<g mask="url(#mask0_15_5)">
<path d="M43.8345 0V20.3908H46.4819V12.223H52.7179C57.2184 12.223 59.8364 9.93834 59.8364 6.08296C59.8364 2.28468 57.2184 0 52.7179 0H43.8345ZM46.4819 9.93834V2.28468H52.2767C55.5417 2.28468 57.1596 3.56981 57.1596 6.11153C57.1596 8.65326 55.5417 9.93834 52.2767 9.93834H46.4819Z" fill="black"/>
<path d="M64.0288 0V20.3908H66.6762V11.8518H72.7945C73.3829 11.8518 73.9417 11.8232 74.5006 11.7661L77.6483 20.3908H80.3838L77.0303 11.1664C79.1776 10.224 80.2369 8.48188 80.2369 5.94017C80.2369 2.19901 77.707 0 73.324 0H64.0288ZM66.6762 9.56713V2.28468H72.9416C76.2067 2.28468 77.5601 3.54126 77.5601 5.94017C77.5601 8.36763 76.0302 9.56713 72.9416 9.56713H66.6762Z" fill="black"/>
<path d="M85.0601 20.3908H87.7075V0H85.0601V20.3908Z" fill="black"/>
<path d="M93.2427 0V20.3908H101.097C104.244 20.3908 106.627 19.4769 108.304 17.6491C109.98 15.8214 110.803 13.3368 110.803 10.1954C110.803 7.05396 109.98 4.56936 108.304 2.74162C106.656 0.913872 104.244 0 101.097 0H93.2427ZM95.8901 18.049V2.3418H101.097C103.509 2.3418 105.274 3.08432 106.421 4.54081C107.568 5.99729 108.127 7.88217 108.127 10.1954C108.127 12.5087 107.568 14.4221 106.421 15.8785C105.274 17.3351 103.509 18.049 101.097 18.049H95.8901Z" fill="black"/>
<path d="M117.751 10.995H127.399V8.65326H117.751V2.3418H129.723V0H115.103V20.3908H130.193V18.049H117.751V10.995Z" fill="black"/>
<path d="M150 20.3908L143.735 9.51001L149.177 0H146.353L141.705 8.1392H140.617L136.028 0H133.175L138.558 9.62419L132.263 20.3908H135.145L140.587 11.1378H141.676L146.97 20.3908H150Z" fill="black"/>
<path d="M28.2617 0.231842V14.8767L20.6126 20.4181V5.77315H10.7491L18.3983 0.231842H28.2617ZM7.64919 7.98967L0 13.531H9.86343V34.3901L17.5126 28.8488V7.98967H7.64919Z" fill="black"/>
</g>
</g>
<defs>
<clipPath id="clip0_15_5">
<rect width="150" height="34.5311" fill="white"/>
</clipPath>
</defs>
</svg>
