<svg width="18" height="18" viewBox="0 0 18 18" fill="none" xmlns="http://www.w3.org/2000/svg">
<path d="M7.4001 0.200012C3.64853 0.200012 0.600098 3.24845 0.600098 7.00001C0.600098 10.7516 3.64853 13.8 7.4001 13.8C8.88447 13.8 10.2564 13.3219 11.3751 12.5125L16.6376 17.7625L17.7626 16.6375L12.5626 11.425C13.5845 10.2344 14.2001 8.68908 14.2001 7.00001C14.2001 3.24845 11.1517 0.200012 7.4001 0.200012ZM7.4001 1.00001C10.7189 1.00001 13.4001 3.68126 13.4001 7.00001C13.4001 10.3188 10.7189 13 7.4001 13C4.08135 13 1.4001 10.3188 1.4001 7.00001C1.4001 3.68126 4.08135 1.00001 7.4001 1.00001Z" fill="#7F7F7F"/>
</svg>
