<svg width="20" height="20" viewBox="0 0 20 20" fill="none" xmlns="http://www.w3.org/2000/svg">
<path d="M20 10C20 15.5228 15.5228 20 10 20C4.47715 20 0 15.5228 0 10C0 4.47715 4.47715 0 10 0C15.5228 0 20 4.47715 20 10Z" fill="#DF0000"/>
<path d="M10.7346 11.096H9.27058V5.6H10.7346V11.096ZM9.07858 13.1C9.07858 12.868 9.16658 12.664 9.34258 12.488C9.52658 12.304 9.75858 12.212 10.0386 12.212C10.2786 12.212 10.4826 12.304 10.6506 12.488C10.8266 12.664 10.9146 12.868 10.9146 13.1C10.9146 13.364 10.8266 13.592 10.6506 13.784C10.4826 13.968 10.2786 14.06 10.0386 14.06C9.75858 14.06 9.52658 13.968 9.34258 13.784C9.16658 13.592 9.07858 13.364 9.07858 13.1Z" fill="white"/>
</svg>
